<?xml version="1.0" encoding="UTF-8"?>
<!-- Created with Inkscape (http://www.inkscape.org/) -->
<svg width="66.146mm" height="66.146mm" version="1.1" viewBox="0 0 66.146 66.146" xmlns="http://www.w3.org/2000/svg" xmlns:cc="http://creativecommons.org/ns#" xmlns:dc="http://purl.org/dc/elements/1.1/" xmlns:rdf="http://www.w3.org/1999/02/22-rdf-syntax-ns#" xmlns:xlink="http://www.w3.org/1999/xlink">
 <defs>
  <linearGradient id="linearGradient5309-5" x1="-384.04" x2="985.97" y1="5639.5" y2="5639.5" gradientTransform="matrix(.048281 0 0 .048281 31.323 -119.99)" gradientUnits="userSpaceOnUse">
   <stop stop-color="#5e14a7" offset="0"/>
   <stop stop-color="#ff6c1b" offset="1"/>
  </linearGradient>
  <clipPath id="clipPath5279-9">
   <circle cx="301.26" cy="5626.3" r="674.99" fill="#f00" fill-rule="evenodd" stroke="#000" stroke-width=".89817px"/>
  </clipPath>
 </defs>
 <metadata>
  <rdf:RDF>
   <cc:Work rdf:about="">
    <dc:format>image/svg+xml</dc:format>
    <dc:type rdf:resource="http://purl.org/dc/dcmitype/StillImage"/>
    <dc:title/>
   </cc:Work>
  </rdf:RDF>
 </metadata>
 <g transform="translate(-12.781 -119.22)">
  <g transform="matrix(.048281 0 0 .048281 31.323 -119.81)" clip-path="url(#clipPath5279-9)" enable-background="new">
   <g fill="#c2a1d3" fill-rule="evenodd" stroke-width="20">
    <path d="m-180.15 6294.2s-52.575-613.74 94.286-858.57c60.789-101.34 207.86-129.69 325.71-147.14 79.812-11.822 164.75 2.3271 240 31.429 74.662 28.874 153.37 70.123 197.14 137.14 64.759 99.141 56.746 230.75 68.571 348.57 16.358 162.99 2.8571 491.43 2.8571 491.43z" stroke="#1d1d1b"/>
    <path d="m-105.86 5448.5s60-67.143 81.429-80c0 0-36.545-84.44-108.57-51.429-34.286 15.714-26.071 57.143-10.714 86.072 15.357 28.928 37.857 45.357 37.857 45.357z" stroke="#000"/>
    <path d="m589.85 5372.8s90 67.143 95.714 78.572c5.7143 11.428 42.857-61.429 42.857-71.429s0-40-17.143-51.429-52.857-15.714-78.571 0c-11.5 7.0277-42.857 44.286-42.857 44.286z" fill-opacity=".99216" opacity=".99" stroke="#1d1d1b"/>
   </g>
   <path d="m-135.86 5328.9s-1.7857 38.571 20 43.928c21.786 5.3572 26.071 6.7857 26.071 6.7857s-10.714-11.786-10-12.857c0.71429-1.0714 16.071-2.8571 18.571-1.0714s12.143-12.857 12.143-12.857 6.0714 17.5 15.714 16.429c9.6428-1.0714 12.143-13.214 12.143-13.214l8.2143 13.214c-30.386 18.54-39.734 35.971-58.724 55.368-1.895 1.9357-1.9128 5.3159-4.0107 7.286-1.9562 1.8369-6.8702 2.6184-9.0511 4.4892-1.352 2.7041-37.043-32.147-40.357-58.214-2.9115-22.899-1.9574-28.139 0-33.214 3.1791-8.2435 9.2857-16.071 9.2857-16.071z" fill="#a88cb7" fill-rule="evenodd"/>
   <path d="m603.13 5374.1s17.265-21.872 27.607-31.103c5.4835-4.8945 18.042-12.678 18.042-12.678l-11.429 23.214s-6.0714 9.6429 0.71429 22.857c6.7857 13.214 25.714-0.7143 25.714-0.7143l3.9286-4.6429s-1.4286 6.7857 2.5 8.9286c3.9286 2.1428 21.071 5.3571 25 4.6428 0 0-10.357 6.7858-11.071 10-0.71429 3.2143-8.2143 12.857-5.7143 19.286 2.5 6.4285 8.7672 14.452 19.069 13.467l-7.63 10.717s-11.268-3.2941-20.725-9.7429c-9.1314-6.2265-17.979-16.476-17.979-16.476 1.1179-1.3925-48.026-37.756-48.026-37.756z" fill="#a88cb7" fill-rule="evenodd"/>
   <path d="m-111.58 5372.8c5.7143 0 48.571 28.572 48.571 28.572s-18.571-35.714-15.714-42.857" fill="none" stroke="#1d1d1b" stroke-linecap="round" stroke-linejoin="round" stroke-width="13"/>
   <path d="m668.42 5355.6c0 19.286-28.571 52.857-28.571 52.857s20-12.143 55.714-9.2857" fill="none" stroke="#1d1d1b" stroke-linecap="round" stroke-linejoin="round" stroke-width="13"/>
   <g fill-rule="evenodd">
    <path d="m193.44 5813.9s9.2999 78.119 55.8 91.139c46.5 13.02 101.33-3.9965 106.02-18.6 3.72-11.585 16.74-84.039 16.74-85.559 0 0-76.259-31.62-91.139-29.76s-87.419 42.78-87.419 42.78z" fill="#333302" stroke="#787878" stroke-width="1px"/>
    <path d="m284.85 5701.4s-72.778-1.4286-88.492 52.143c-15.714 53.571 13.117 57.482 13.117 57.482 6.631 5.6066 44.94-5.0436 66.089-12.482 14.047-4.9405 41.429-5.7143 50-2.1428 8.5714 3.5714 31.054 10.985 44.286 4.2857 10.382-5.257 17.737-18.363 17.857-30 0.20948-20.258-13.728-40.788-30-52.857-19.996-14.831-66.429-17.143-72.857-16.428z" fill="#ccbdac" stroke="#1d1d1b" stroke-width="18"/>
    <path d="m280.57 5674.2s47.143-2.1429 52.857 18.571c5.7143 20.714-23.571 47.857-47.143 47.143s-61.429-25-58.571-40c2.8572-15 46.429-27.857 52.857-25.714z" fill="#595755" stroke="#1d1d1b" stroke-linejoin="round" stroke-width="18"/>
   </g>
   <path d="m302.71 5693.5s12.143 5.7143 12.143 12.857" fill="none" stroke="#1d1d1b" stroke-linecap="round" stroke-linejoin="round" stroke-width="8"/>
   <path d="m279.29 5684.2s-12.542 4.567-16.396 13.045c-7.5761 16.668 16.668 26.264 18.688 32.325 0.31976 1.2791-11.746-1.5904-21.213-6.566-8.2208-4.3203-22.197-17.531-23.486-21.971 3.3904-2.6225 16.045-11.053 26.812-14.081 10.275-2.8899 14.538-3.4655 15.595-2.7526z" fill="#454342" fill-rule="evenodd"/>
   <path d="m287.14 5794.3s-42.427 12.627-42.932 15.152c-0.50507 2.5254-0.50542 50.508 11.111 57.074s33.842 7.5762 33.842 7.5762 25.433 1.1501 31.732-7.3985c7.0711-9.5964 15.658-51.461 14.143-60.553s-47.182-11.852-47.182-11.852c-0.73289-0.2072-0.71485 0-0.71485 0z" fill="#fff" fill-rule="evenodd" opacity=".99" stroke="#1d1d1b" stroke-linejoin="round" stroke-width="18"/>
   <path d="m287.35 5791s0.35714 39.643 1.7857 43.571c1.4286 3.9286 0.71429 36.786-0.71428 40" fill="none" opacity=".99" stroke="#1d1d1b" stroke-width="14"/>
   <g fill-rule="evenodd">
    <path d="m280.19 5819.6s-20.387 3.7754-8.265 43.171l-11.87-2.6992s-9.4535-18.556-7.5934-44.365l27.254-10.255z" fill="#b9b9b9"/>
    <path d="m295.1 5803.7s0.29586 21.397 0.80094 23.922c0.50507 2.5254 17.091-17.173 22.79-19.882 0 0-11.974-5.0508-23.591-4.0406z" fill="#b9b9b9"/>
    <path d="m13.653 6316s-17.939-240.37 159.85-314.11c177.79-73.741 290.42 54.043 292.44 61.114 2.0203 7.071 29.211 49.023 42.931 94.449 10.008 33.136 14.146 58.337 21.718 87.378 6.3735 24.442 19.959 73.103 19.959 73.103l-268.45-0.9668z" fill="#dac7e5"/>
    <path d="m371.49 5602.8c-0.94932 2.5315 0.41928 29.166-0.15201 52.057-0.56669 22.707-3.1069 41.625 4.1926 55.524 19.047 36.268 43.648 76.302 80.307 96.47 54.605 30.039 104.51 49.089 184.35 36.871 0 0 55.558-8.5863 80.812-46.467 0.6038 1.5095-42.57 28.038-72.226 34.345-29.314 6.2347-70.711 2.6131-105.56-9.0913-23.141-7.772-80.307-28.789-99.5-49.498-19.193-20.708-53.538-65.155-56.063-82.832-1.103-7.721-6.7547-20.917-9.9686-38.41-4.1446-22.559-5.9094-49.252-6.1938-48.968z" fill="#a88cb7"/>
   </g>
   <g fill="none" stroke="#1d1d1b" stroke-linecap="round" stroke-linejoin="round" stroke-width="20">
    <path d="m-172.48 5509.4s-43.437-7.0711-44.447-15.152"/>
    <path d="m-144.19 5475.1s-34.345-16.162-36.365-23.234"/>
    <path d="m732.62 5474s30.305-5.0507 41.416-21.213"/>
    <path d="m760.9 5517.5s29.294 6.0609 40.406-7.0711"/>
   </g>
   <g fill-rule="evenodd">
    <path d="m2.2796 5417.5c51.781 0.559 107.16 20.384 145.46 54.548 63.291 56.448 60.904 173.11 40.406 215.16-15.957 32.74-54.968 91.12-101.02 110.11-67.312 27.754-155.71 47.884-213.14-8.0813-48.363-47.131-83.176-132.35-73.741-204.05 5.834-44.34 29.936-87.995 56.569-113.14 39.677-37.457 94.231-55.101 145.46-54.548z" fill="#fff" stroke="#1d1d1b" stroke-width="20"/>
    <path d="m581.74 5417.5c-51.781 0.559-107.16 20.384-145.46 54.548-63.291 56.448-60.904 173.11-40.406 215.16 15.957 32.74 54.968 91.12 101.02 110.11 67.312 27.754 155.71 47.884 213.14-8.0813 48.363-47.131 83.176-132.35 73.741-204.05-5.834-44.34-29.936-87.995-56.569-113.14-39.677-37.457-94.231-55.101-145.46-54.548z" fill="#fff" stroke="#1d1d1b" stroke-width="20"/>
    <path d="m-15.861 5547.7c-8.3889 2.3887-16.967 4.9933-24.024 10.351-13.246 9.4816-20.217 26.702-18.068 42.737 2.2978 14.749 13.839 25.982 26.228 33.201 5.0711 2.8543 10.314 5.6938 15.952 7.1718 9.8823 1.4337 20.701-0.1635 28.436-6.9179 7.3521-6.3094 12.844-14.656 16.696-23.487 4.9582-13.87 3.8138-29.601-1.8177-43.088-2.5592-6.3272-7.2434-11.672-13.377-14.733-8.8406-5.6908-19.762-8.0583-30.025-5.2342z" fill="#1d1d1b"/>
    <path d="m599.37 5547.7c-8.3889 2.3887-16.967 4.9933-24.024 10.351-13.246 9.4816-20.217 26.702-18.068 42.737 2.2978 14.749 13.839 25.982 26.228 33.201 5.0711 2.8543 10.314 5.6938 15.952 7.1718 9.8823 1.4337 20.701-0.1635 28.436-6.9179 7.3521-6.3094 12.844-14.656 16.696-23.487 4.9582-13.87 3.8138-29.601-1.8177-43.088-2.5592-6.3272-7.2434-11.672-13.377-14.733-8.8406-5.6908-19.762-8.0583-30.025-5.2342z" fill="#1d1d1b"/>
    <circle cx="-26.257" cy="5576.8" r="12.374" fill="#fff"/>
    <circle transform="scale(-1,1)" cx="-590.39" cy="5576" r="12.374" fill="#fff"/>
    <path d="m592.71 5432.1s-69.792 9.8188-95.459 33.84c-28.699 26.859-52.528 43.437-64.65 91.924-18.07 72.281-7.5504 112.48 20.203 157.58 27.702 45.019 107.08 83.843 131.32 88.893 24.244 5.0508 48.487 2.0203 48.487 2.0203l33.126-7.8011s6.418 6.8502-5 10c-32.995 9.1022-56.413 5.6207-89.204 1.0916-41.107-5.6778-82.22-19.762-111.2-49.462-30.139-30.884-63.186-67.146-66.201-128.97-2.6761-54.882 5.0125-93.929 27.238-126.39 19.917-29.09 57.952-52.497 87.19-65.191 28.771-12.492 80.113-15.622 84.153-7.5403z" fill="#dcdcdc"/>
    <path d="m33.594 5428.6c-0.38688-0.7738-47.075 6.8139-84.516 20.811-17.966 6.7167-21.363 10.157-31.1 16.788-10.699 7.2867-23.943 18.816-29.682 25.041-19.44 21.088-32.742 43.447-39.56 69.689-11.905 45.822-12.922 101.89 13.132 141.42 30.005 45.524 54.179 55.674 86.798 76.072 13.031 8.1488 27.095 13.306 42.502 17.872 12.88 3.8171 35.901 6.2318 49.349 7.1271 13.489 0.8981-27.786 8.1967-45.942 9.6166-28.183 2.2041-69.108-0.5366-96.994-17.959-36.478-22.79-62.963-62.986-76.751-103.73-14.255-42.122-14.448-90.676-2.0816-133.39 9.5677-33.049 30.73-63.582 56.497-86.383 22.326-19.756 57.19-35.911 80.25-39.483 19.965-3.0921 61.915-10.087 78.099-3.4953z" fill="#dcdcdc"/>
    <path d="m230.72 5725.5c-1.6718-2.3824-28.731 18.126-29.185 46.27-4e-3 0.018-5.6153 36.021 22.374 31.108 1.537-0.2698 10.328-2.5154 13.897-3.2437 11.313-2.3093 21.867-6.9382 32.924-9.9774 4.6965-1.2909 11.155-3.7575 14.185-3.5049 0 0-25.033 1.9409-35.651-3.5229-3.9784-2.0471-8.7046-5.6293-8.8388-10.102-0.19806-6.5975 6.637-11.986 12.122-15.657 7.4775-5.0058 26.032-7.1449 26.032-7.1449-1.1382-2.0134-17.634-0.4851-47.861-24.226z" fill="#958b7f"/>
   </g>
   <g>
    <path d="m255.83 5754.9z" fill="none" stroke="#000" stroke-width="1px"/>
    <path d="m288.42 5278.5c-14.229-29.186-39.634-46.333-67.175-62.084-16.269-9.9084-35.655-22.658-55.942-18.839-8.8589 1.6677-12.106 1.9822-11.566 24.393 0.53998 22.411 5.0353 64.849 5.8134 98.828 1.0917 16.571-4.0597 43.067 11.282 51.907 6.6761 3.847 14.127-2.7481 22.005-7.0794 25.903-17.08 49.838-36.996 73.852-56.602 8.504-6.4464 18.754-12.347 22.972-22.638 0.54638-2.6635 0.10411-5.5209-1.242-7.8853z" fill="#dd8aff" fill-rule="evenodd" stroke="#1d1d1b" stroke-width="20"/>
    <path d="m294.05 5275.8c14.584-26.674 40.645-44.817 68.185-60.569 16.269-9.9084 36.665-21.143 56.952-17.324 8.8589 1.6677 8.57-1.0483 10.555 20.858s-3.5201 67.879-4.2982 101.86c-1.0917 16.571 2.7136 40.137-11.787 47.866-10.844 5.7805-27.039-7.8227-34.632-12.635-26.207-16.61-43.136-31.85-63.246-49.531-8.0737-7.0986-18.754-12.347-22.972-22.638-0.54638-2.6634-0.0345-5.5506 1.242-7.8852z" fill="#dd8aff" fill-rule="evenodd" stroke="#1d1d1b" stroke-width="20"/>
   </g>
   <g fill="#bf79dc" fill-rule="evenodd">
    <path d="m248.42 5273.5s-24.286 10-27.857 17.143c-3.5714 7.1428-21.257 35.178-36.429 48.571-2.8781 2.5408-6.2114 6.3354-10 5.7143-2.8293-0.4639-5.7143-6.4286-5.7143-6.4286 1.3406 0.383 1.8226 19.04 5.7143 22.143 3.9512 3.1506 14.112-5.2635 18.214-8.2143 25.641-18.442 83.937-64.502 85.357-63.75l-0.71428-15.179z"/>
    <path d="m189.14 5214.9-7.1428 1.4286s48.707 36.306 59.821 41.428c3.9353 1.8138 9.7179 1.5166 14.255 3.3109 8.1215 3.2118 14.609 6.1686 14.138 6.6891 0 0-13.002-14.89-20.893-20.714-18.297-13.505-36.778-23.534-60.179-32.143z"/>
    <path d="m395.14 5214.4s-11.003 15.541-13.86 17.684c-2.8571 2.1429-10.714 13.572-11.429 17.857s-4.2857 18.571-8.5714 22.143c-4.2857 3.5715-6.4286 7.8572-13.571 10.714-7.1428 2.8572-7.1428 20.714-4.2857 25s14.112 18.102 14.112 18.102l-46.326-34.088 0.82923-24.694 30.584-26.55c18.371-10.207 32.23-18.516 52.517-26.169z"/>
   </g>
   <g stroke="#1d1d1b">
    <path d="m211.89 5267.5c25.254-17.173 72.226 12.122 72.226 12.122s-47.982 7.5761-56.569 27.779" fill="none" stroke-linecap="round" stroke-linejoin="round" stroke-width="14"/>
    <path d="m386.14 5262.9c-22.223-23.234-89.398 16.162-89.398 16.162s76.772 8.0812 80.307 13.637" fill="none" stroke-linecap="round" stroke-linejoin="round" stroke-width="14"/>
    <path d="m838.28 5938.4s74.05-77.833 61.696-121.56c-14.716-52.086-66.078-89.31-99.489-51.467-42.308 47.919-121.06 182.63-109.54 204.05 11.521 21.427 112.78 6.033 147.33-31.025z" fill="#ccbdac" fill-rule="evenodd" stroke-width="20"/>
    <path d="m870.81 5770s-30.392 29.44-37.238 39.027c-6.8465 9.5865 30.069-40.315 24.188-48.773" fill="none" stroke-width="20"/>
   </g>
   <path d="m241.25 5902.1s32.165-13.79 45.184-10.07c13.02 3.7199 14.88 0 24.18-3.72s28.238 10.728 28.238 10.728-39.823 24.518-97.602 3.0624z" fill="#f965b6" fill-rule="evenodd"/>
   <path d="m295.26 5888.4 13.345 15.855" fill="none" stroke="#333302" stroke-linecap="round" stroke-linejoin="round" stroke-width="10"/>
  </g>
  <circle cx="45.854" cy="152.29" r="32.59" enable-background="new" fill="none" stroke="url(#linearGradient5309-5)" stroke-width=".96674"/>
 </g>
</svg>
