<?xml version="1.0" encoding="UTF-8"?>
<!-- Created with Inkscape (http://www.inkscape.org/) -->
<svg width="66.146mm" height="66.146mm" enable-background="new" version="1.1" viewBox="0 0 234.37 234.37" xmlns="http://www.w3.org/2000/svg" xmlns:cc="http://creativecommons.org/ns#" xmlns:dc="http://purl.org/dc/elements/1.1/" xmlns:rdf="http://www.w3.org/1999/02/22-rdf-syntax-ns#">
 <defs>
  <clipPath id="clipPath5044">
   <circle cx="332.38" cy="319.46" r="669.12" fill="none" stroke="#1d1d1b" stroke-width="18.938"/>
  </clipPath>
 </defs>
 <metadata>
  <rdf:RDF>
   <cc:Work rdf:about="">
    <dc:format>image/svg+xml</dc:format>
    <dc:type rdf:resource="http://purl.org/dc/dcmitype/StillImage"/>
    <dc:title/>
   </cc:Work>
  </rdf:RDF>
 </metadata>
 <g transform="translate(358.24 -762.56)">
  <g transform="matrix(.17269 0 0 .17269 -297.98 823.47)" clip-path="url(#clipPath5044)">
   <g fill="#c2a1d3" fill-rule="evenodd" stroke-width="20">
    <path d="m-140 1003.8s-52.575-613.74 94.286-858.57c60.789-101.34 207.86-129.69 325.71-147.14 79.812-11.822 164.75 2.3271 240 31.429 74.662 28.874 153.37 70.123 197.14 137.14 64.759 99.141 56.746 230.75 68.571 348.57 16.358 162.99 2.8571 491.43 2.8571 491.43z" stroke="#1d1d1b"/>
    <path d="m-65.714 158.08s60-67.143 81.429-80c0 0-36.545-84.441-108.57-51.429-34.286 15.714-26.071 57.143-10.714 86.071 15.357 28.929 37.857 45.357 37.857 45.357z" stroke="#000"/>
    <path d="m630 82.362s90 67.143 95.714 78.571c5.7143 11.429 42.857-61.429 42.857-71.429s0-40-17.143-51.429c-17.143-11.429-52.857-15.714-78.571 1e-6 -11.5 7.0276-42.857 44.286-42.857 44.286z" fill-opacity=".99216" opacity=".99" stroke="#1d1d1b"/>
   </g>
   <path d="m-95.714 38.434s-1.7857 38.571 20 43.929 26.071 6.7857 26.071 6.7857-10.714-11.786-10-12.857c0.71428-1.0714 16.071-2.8571 18.571-1.0714s12.143-12.857 12.143-12.857 6.0714 17.5 15.714 16.429c9.6429-1.0714 12.143-13.214 12.143-13.214l8.2143 13.214c-30.386 18.54-39.734 35.971-58.724 55.368-1.895 1.9357-1.9128 5.3159-4.0107 7.286-1.9562 1.8369-6.8702 2.6184-9.0511 4.4892-1.3521 2.7041-37.043-32.147-40.357-58.214-2.9115-22.899-1.9574-28.139 0-33.214 3.1791-8.2435 9.2857-16.071 9.2857-16.071z" fill="#a88cb7" fill-rule="evenodd"/>
   <path d="m643.28 83.643s17.265-21.872 27.607-31.103c5.4835-4.8945 18.042-12.678 18.042-12.678l-11.429 23.214s-6.0714 9.6429 0.71429 22.857c6.7857 13.214 25.714-0.71429 25.714-0.71429l3.9286-4.6429s-1.4286 6.7857 2.5 8.9286c3.9286 2.1429 21.071 5.3571 25 4.6429 0 0-10.357 6.7857-11.071 10-0.71429 3.2143-8.2143 12.857-5.7143 19.286s8.7672 14.452 19.069 13.467l-7.63 10.717s-11.268-3.2941-20.725-9.7429c-9.1314-6.2265-17.979-16.476-17.979-16.476 1.1179-1.3925-48.026-37.756-48.026-37.756z" fill="#a88cb7" fill-rule="evenodd"/>
   <g stroke="#1d1d1b">
    <path d="m-71.429 82.362c5.7143 0 48.571 28.571 48.571 28.571s-18.571-35.714-15.714-42.857" fill="none" stroke-linecap="round" stroke-linejoin="round" stroke-width="13"/>
    <path d="m708.57 65.219c0 19.286-28.571 52.857-28.571 52.857s20-12.143 55.714-9.2857" fill="none" stroke-linecap="round" stroke-linejoin="round" stroke-width="13"/>
    <path d="m325 410.93s-72.778-1.4286-88.492 52.143c-15.714 53.571 13.117 57.482 13.117 57.482 6.631 5.6066 44.94-5.0435 66.089-12.482 14.047-4.9405 41.429-5.7143 50-2.1429 8.5714 3.5714 31.054 10.985 44.286 4.2857 10.382-5.257 17.737-18.363 17.857-30 0.20948-20.258-13.728-40.788-30-52.857-19.996-14.831-66.429-17.143-72.857-16.429z" fill="#ccbdac" fill-rule="evenodd" stroke-width="18"/>
    <path d="m320.71 383.79s47.143-2.1429 52.857 18.571c5.7143 20.714-23.571 47.857-47.143 47.143-23.571-0.71429-61.429-25-58.571-40 2.8572-15 46.429-27.857 52.857-25.714z" fill="#595755" fill-rule="evenodd" stroke-linejoin="round" stroke-width="18"/>
    <path d="m342.86 403.08s12.143 5.7143 12.143 12.857" fill="none" stroke-linecap="round" stroke-linejoin="round" stroke-width="8"/>
   </g>
   <path d="m319.44 393.83s-12.542 4.567-16.396 13.045c-7.5761 16.668 16.668 26.264 18.688 32.325 0.31976 1.279-11.746-1.5904-21.213-6.566-8.2208-4.3204-22.197-17.531-23.486-21.971 3.3904-2.6225 16.045-11.053 26.812-14.081 10.275-2.8899 14.538-3.4655 15.595-2.7526z" fill="#454342" fill-rule="evenodd"/>
   <path d="m327.29 503.85s-42.427 12.627-42.932 15.152c-0.50507 2.5254-0.50542 50.508 11.111 57.074s33.842 7.5762 33.842 7.5762 25.433 1.1502 31.732-7.3984c7.0711-9.5964 15.658-51.461 14.143-60.553-1.5152-9.0914-47.182-11.852-47.182-11.852-0.73289-0.20719-0.71485 0-0.71485 0z" fill="#fff" fill-rule="evenodd" opacity=".99" stroke="#1d1d1b" stroke-linejoin="round" stroke-width="18"/>
   <path d="m327.5 500.58s0.35714 39.643 1.7857 43.571c1.4286 3.9286 0.71429 36.786-0.71428 40" fill="none" opacity=".99" stroke="#1d1d1b" stroke-width="14"/>
   <g fill-rule="evenodd">
    <path d="m320.34 529.16s-20.387 3.7754-8.265 43.171l-11.87-2.6992s-9.4535-18.556-7.5934-44.365l27.254-10.255z" fill="#b9b9b9"/>
    <path d="m335.25 513.32s0.29586 21.397 0.80094 23.922c0.50507 2.5254 17.091-17.173 22.79-19.882 0 0-11.974-5.0508-23.591-4.0406z" fill="#b9b9b9"/>
    <path d="m42.426 993.7s-6.566-208.52 171.22-282.27c177.79-73.741 290.42 54.043 292.44 61.114 2.0203 7.0711 29.211 49.023 42.931 94.449 10.008 33.136 15.04 58.118 21.718 87.378 3.1258 13.695 8.5863 41.258 8.5863 41.258z" fill="#dac7e5"/>
    <path d="m411.64 312.43c-0.94932 2.5315 0.41928 29.166-0.15201 52.057-0.56669 22.707-3.1069 41.625 4.1926 55.524 19.047 36.267 43.648 76.302 80.307 96.47 54.605 30.039 104.51 49.089 184.35 36.871 0 0 55.558-8.5863 80.812-46.467 0.6038 1.5095-42.57 28.038-72.226 34.345-29.314 6.2346-70.711 2.6131-105.56-9.0914-23.141-7.772-80.307-28.789-99.5-49.497-19.193-20.708-53.538-65.155-56.063-82.833-1.103-7.721-6.7547-20.917-9.9686-38.41-4.1446-22.559-5.9094-49.252-6.1938-48.968z" fill="#a88cb7"/>
   </g>
   <g fill="none" stroke="#1d1d1b" stroke-linecap="round" stroke-linejoin="round" stroke-width="20">
    <path d="m-132.33 218.99s-43.437-7.0711-44.447-15.152"/>
    <path d="m-104.05 184.64s-34.345-16.162-36.365-23.234"/>
    <path d="m772.77 183.63s30.305-5.0508 41.416-21.213"/>
    <path d="m801.05 227.07s29.294 6.0609 40.406-7.0711"/>
   </g>
   <g fill-rule="evenodd">
    <path d="m42.426 127.06c51.781 0.55905 107.16 20.384 145.46 54.548 63.291 56.448 60.904 173.11 40.406 215.16-15.957 32.74-54.968 91.12-101.02 110.11-67.312 27.754-155.71 47.884-213.14-8.0812-48.363-47.131-83.176-132.35-73.741-204.05 5.834-44.34 29.936-87.995 56.569-113.14 39.677-37.457 94.231-55.101 145.46-54.548z" fill="#fff" stroke="#1d1d1b" stroke-width="20"/>
    <path d="m621.89 127.06c-51.781 0.55905-107.16 20.384-145.46 54.548-63.291 56.448-60.904 173.11-40.406 215.16 15.957 32.74 54.968 91.12 101.02 110.11 67.312 27.754 155.71 47.884 213.14-8.0812 48.363-47.131 83.176-132.35 73.741-204.05-5.834-44.34-29.936-87.995-56.569-113.14-39.677-37.457-94.231-55.101-145.46-54.548z" fill="#fff" stroke="#1d1d1b" stroke-width="20"/>
    <path d="m24.286 257.28c-8.3889 2.3887-16.967 4.9933-24.024 10.351-13.246 9.4816-20.217 26.702-18.068 42.737 2.2978 14.749 13.839 25.982 26.228 33.201 5.0711 2.8543 10.314 5.6938 15.952 7.1718 9.8823 1.4337 20.701-0.16354 28.436-6.9179 7.3521-6.3095 12.844-14.656 16.696-23.487 4.9582-13.87 3.8138-29.601-1.8177-43.088-2.5592-6.3272-7.2434-11.672-13.377-14.733-8.8406-5.6908-19.762-8.0583-30.025-5.2342z" fill="#1d1d1b"/>
    <path d="m639.52 257.28c-8.3889 2.3887-16.967 4.9933-24.024 10.351-13.246 9.4816-20.217 26.702-18.068 42.737 2.2978 14.749 13.839 25.982 26.228 33.201 5.0711 2.8543 10.314 5.6938 15.952 7.1718 9.8823 1.4337 20.701-0.16354 28.436-6.9179 7.3521-6.3095 12.844-14.656 16.696-23.487 4.9582-13.87 3.8138-29.601-1.8177-43.088-2.5592-6.3272-7.2434-11.672-13.377-14.733-8.8406-5.6908-19.762-8.0583-30.025-5.2342z" fill="#1d1d1b"/>
    <circle cx="13.89" cy="286.41" r="12.374" fill="#fff"/>
    <circle transform="scale(-1,1)" cx="-630.54" cy="285.59" r="12.374" fill="#fff"/>
    <path d="m632.86 141.71s-69.792 9.8188-95.459 33.84c-28.699 26.859-52.528 43.437-64.65 91.924-18.07 72.281-7.5504 112.48 20.203 157.58 27.702 45.019 107.08 83.843 131.32 88.893s48.487 2.0203 48.487 2.0203l33.126-7.8011s6.418 6.8502-5 10c-32.995 9.1022-56.413 5.6207-89.204 1.0916-41.107-5.6778-82.22-19.762-111.2-49.462-30.139-30.884-63.186-67.146-66.201-128.97-2.6761-54.882 5.0125-93.929 27.238-126.39 19.917-29.09 57.952-52.497 87.19-65.191 28.771-12.492 80.113-15.621 84.153-7.5402z" fill="#dcdcdc"/>
    <path d="m73.741 138.17c-0.38687-0.77375-47.075 6.8139-84.516 20.811-17.966 6.7167-21.363 10.157-31.1 16.788-10.699 7.2867-23.943 18.816-29.682 25.041-19.44 21.088-32.742 43.447-39.56 69.689-11.905 45.822-12.922 101.89 13.132 141.42 30.005 45.524 54.179 55.674 86.798 76.072 13.031 8.1488 27.095 13.306 42.502 17.872 12.88 3.8171 35.901 6.2318 49.349 7.1271 13.489 0.89811-27.786 8.1967-45.942 9.6166-28.183 2.2041-69.108-0.5366-96.994-17.959-36.478-22.79-62.963-62.986-76.751-103.73-14.255-42.122-14.448-90.676-2.0816-133.39 9.5677-33.049 30.73-63.582 56.497-86.383 22.326-19.756 57.19-35.911 80.25-39.483 19.965-3.0921 61.915-10.087 78.099-3.4953z" fill="#dcdcdc"/>
    <path d="m229.26 520.12s10.895 18.941 26.131 20.693c13.992 1.6083 20.884 16.578 20.884 16.578-1.6667-8.8388-2.3635-18.688-2.0203-27.527-11.094 3.9717-32.535 5.7431-44.995-9.7444z" fill="#a88cb7"/>
    <path d="m381.02 554.2s6.8767-18.024 12.938-20.045c6.0609-2.0203 31.345-4.2752 31.345-22.458-5.4337 6.8544-14.912 8.2534-22.923 10.628-6.123 1.8147-16.754 0.5252-16.754 0.5252z" fill="#a88cb7"/>
    <path d="m270.86 435.1c-1.6718-2.3824-28.731 18.126-29.185 46.27-4e-3 0.0176-5.6153 36.021 22.374 31.108 1.537-0.26979 10.328-2.5153 13.897-3.2437 11.313-2.3092 21.867-6.9382 32.924-9.9774 4.6965-1.2909 11.155-3.7574 14.185-3.5049 0 0-25.033 1.941-35.651-3.5228-3.9784-2.0471-8.7046-5.6294-8.8388-10.102-0.19806-6.5975 6.637-11.986 12.122-15.657 7.4775-5.0058 26.032-7.1449 26.032-7.1449-1.1382-2.0134-17.634-0.48514-47.861-24.226z" fill="#958b7f"/>
   </g>
   <g>
    <path d="m295.97 464.45z" fill="none" stroke="#000" stroke-width="1px"/>
    <path d="m328.57-11.924c-14.229-29.186-39.634-46.333-67.175-62.085-16.269-9.9084-35.655-22.658-55.942-18.839-8.8589 1.6676-12.106 1.9822-11.566 24.393 0.53998 22.411 5.0353 64.849 5.8134 98.828 1.0917 16.571-4.0597 43.067 11.282 51.907 6.6761 3.847 14.127-2.7482 22.005-7.0794 25.903-17.08 49.838-36.996 73.852-56.602 8.504-6.4464 18.754-12.347 22.972-22.637 0.54638-2.6635 0.10411-5.5209-1.242-7.8853z" fill="#dd8aff" fill-rule="evenodd" stroke="#1d1d1b" stroke-width="20"/>
    <path d="m334.2-14.576c14.584-26.674 40.645-44.817 68.185-60.569 16.269-9.9084 36.665-21.143 56.952-17.324 8.8589 1.6676 8.57-1.0483 10.555 20.858s-3.5201 67.879-4.2982 101.86c-1.0917 16.571 2.7136 40.137-11.787 47.866-10.844 5.7805-27.039-7.8226-34.632-12.635-26.207-16.61-43.136-31.85-63.246-49.531-8.0737-7.0987-18.754-12.347-22.972-22.637-0.54638-2.6635-0.0345-5.5506 1.242-7.8853z" fill="#dd8aff" fill-rule="evenodd" stroke="#1d1d1b" stroke-width="20"/>
   </g>
   <g fill="#bf79dc" fill-rule="evenodd">
    <path d="m288.57-16.924s-24.286 10-27.857 17.143c-3.5714 7.1429-21.257 35.178-36.429 48.571-2.8781 2.5408-6.2114 6.3354-10 5.7143-2.8293-0.46386-5.7143-6.4286-5.7143-6.4286 1.3406 0.38302 1.8226 19.04 5.7143 22.143 3.9512 3.1506 14.112-5.2635 18.214-8.2143 25.641-18.442 83.937-64.502 85.357-63.75l-0.71428-15.179z"/>
    <path d="m229.29-75.495-7.1428 1.4286s48.707 36.306 59.821 41.429c3.9353 1.8138 9.7179 1.5166 14.255 3.3109 8.1215 3.2118 14.609 6.1686 14.138 6.6891 0 0-13.002-14.89-20.893-20.714-18.297-13.505-36.778-23.534-60.179-32.143z"/>
    <path d="m435.29-76.036s-11.003 15.541-13.86 17.684-10.714 13.571-11.429 17.857c-0.71429 4.2857-4.2857 18.571-8.5714 22.143-4.2857 3.5714-6.4286 7.8571-13.571 10.714-7.1428 2.8571-7.1428 20.714-4.2857 25 2.8571 4.2857 14.112 18.102 14.112 18.102l-46.326-34.088 0.82923-24.694 30.584-26.55c18.371-10.207 32.23-18.516 52.517-26.169z"/>
   </g>
   <path d="m252.03-22.945c25.254-17.173 72.226 12.122 72.226 12.122s-47.982 7.5761-56.569 27.779" fill="none" stroke="#1d1d1b" stroke-linecap="round" stroke-linejoin="round" stroke-width="14"/>
   <path d="m426.28-27.491c-22.223-23.234-89.398 16.162-89.398 16.162s76.772 8.0812 80.307 13.637" fill="none" stroke="#1d1d1b" stroke-linecap="round" stroke-linejoin="round" stroke-width="14"/>
  </g>
 </g>
 <g transform="translate(358.24 -762.56)">
  <circle cx="-241.05" cy="879.75" r="115.55" fill="none" stroke="#1d1d1b" stroke-width="3.2704"/>
 </g>
</svg>
