<?xml version="1.0" encoding="UTF-8"?>
<svg width="38.1mm" height="8.7894mm" version="1.1" viewBox="0 0 38.1 8.7894" xmlns="http://www.w3.org/2000/svg" xmlns:cc="http://creativecommons.org/ns#" xmlns:dc="http://purl.org/dc/elements/1.1/" xmlns:rdf="http://www.w3.org/1999/02/22-rdf-syntax-ns#" xmlns:xlink="http://www.w3.org/1999/xlink">
 <defs>
  <linearGradient id="linearGradient1106">
   <stop stop-color="#cd2fe6" offset="0"/>
   <stop stop-color="#e184f0" offset="1"/>
  </linearGradient>
  <linearGradient id="linearGradient1094-0" x1="16.321" x2="24.645" y1="174.96" y2="174.87" gradientTransform="matrix(.82296 0 0 .82296 26.012 24.254)" gradientUnits="userSpaceOnUse" xlink:href="#linearGradient1106"/>
  <linearGradient id="linearGradient1168" x1="7.1645" x2="11.419" y1="179.1" y2="178.96" gradientTransform="matrix(.82296 0 0 .82296 36.916 23.778)" gradientUnits="userSpaceOnUse">
   <stop stop-color="#ff8a49" offset="0"/>
   <stop stop-color="#ffa777" offset="1"/>
  </linearGradient>
  <linearGradient id="linearGradient1182" x1="3.1181" x2="7.5344" y1="180.44" y2="180.46" gradientTransform="matrix(.82296 0 0 .82296 36.916 23.778)" gradientUnits="userSpaceOnUse">
   <stop stop-color="#9237ea" offset="0"/>
   <stop stop-color="#ab66ef" offset="1"/>
  </linearGradient>
 </defs>
 <metadata>
  <rdf:RDF>
   <cc:Work rdf:about="">
    <dc:format>image/svg+xml</dc:format>
    <dc:type rdf:resource="http://purl.org/dc/dcmitype/StillImage"/>
    <dc:title/>
   </cc:Work>
  </rdf:RDF>
 </metadata>
 <g transform="translate(-39.45 -165.77)">
  <g fill-rule="evenodd">
   <rect x="39.462" y="169.15" width="6.7496" height="3.3805" fill="url(#linearGradient1168)"/>
   <rect x="39.45" y="165.77" width="3.3805" height="8.7894" fill="url(#linearGradient1182)"/>
   <rect x="39.45" y="165.77" width="6.7611" height="3.4091" ry="0" fill="url(#linearGradient1094-0)"/>
   <path d="m46.211 169.17-6.7602 1.2237-8.8e-4 -1.2394z" fill="url(#linearGradient1094-0)"/>
   <path d="m46.211 169.17-6.761 2.4346 8e-4 -1.2109z" opacity=".194"/>
  </g>
  <g stroke-width=".15428px" aria-label="Plentiform">
   <path d="m51.096 169.54q0 0.66897-0.45803 1.0306-0.45502 0.35859-1.3048 0.35859h-0.5183v1.7327h-0.51227v-4.4055h1.1421q1.6513 0 1.6513 1.2837zm-2.2811 0.94922h0.46104q0.68102 0 0.98537-0.21998t0.30435-0.70513q0-0.43694-0.28627-0.65089t-0.89196-0.21395h-0.57254z"/>
   <path d="m52.44 172.67h-0.50022v-4.6888h0.50022z"/>
   <path d="m54.902 172.73q-0.73225 0-1.1571-0.44598-0.42187-0.44598-0.42187-1.2385 0-0.79854 0.39174-1.2686 0.39475-0.47008 1.0577-0.47008 0.62075 0 0.98236 0.40981 0.3616 0.40681 0.3616 1.0758v0.3164h-2.2751q0.01507 0.58158 0.2923 0.88292 0.28024 0.30133 0.78649 0.30133 0.53337 0 1.0547-0.22299v0.44598q-0.26518 0.11451-0.50323 0.16272-0.23504 0.0512-0.56953 0.0512zm-0.1356-3.0043q-0.39776 0-0.63582 0.25915-0.23504 0.25915-0.27723 0.71718h1.7267q0-0.47309-0.21094-0.7232-0.21094-0.25313-0.60267-0.25313z"/>
   <path d="m59.226 172.67v-2.1365q0-0.4038-0.18382-0.60268t-0.57555-0.19888q-0.5183 0-0.75937 0.28024-0.24107 0.28025-0.24107 0.92511v1.7327h-0.50022v-3.3026h0.4068l0.08136 0.45201h0.02411q0.15368-0.24409 0.43091-0.37667 0.27723-0.1356 0.61774-0.1356 0.59665 0 0.89798 0.28928 0.30134 0.28627 0.30134 0.91908v2.1546z"/>
   <path d="m61.817 172.31q0.13259 0 0.25614-0.0181 0.12355-0.0211 0.19587-0.0422v0.3827q-0.08136 0.0392-0.24107 0.0633-0.1567 0.0271-0.28326 0.0271-0.95825 0-0.95825-1.0095v-1.9647h-0.4731v-0.24107l0.4731-0.20792 0.21094-0.70513h0.28928v0.76539h0.95825v0.38873h-0.95825v1.9436q0 0.29832 0.14163 0.45803 0.14163 0.15971 0.38872 0.15971z"/>
   <path d="m63.432 172.67h-0.50022v-3.3026h0.50022zm-0.54241-4.1976q0-0.17176 0.08437-0.25011 0.08438-0.0814 0.21094-0.0814 0.12054 0 0.20792 0.0814 0.08739 0.0814 0.08739 0.25011 0 0.16875-0.08739 0.25313-0.08739 0.0814-0.20792 0.0814-0.12656 0-0.21094-0.0814-0.08437-0.0844-0.08437-0.25313z"/>
   <path d="m65.988 169.75h-0.84073v2.9139h-0.50022v-2.9139h-0.59062v-0.22601l0.59062-0.1808v-0.18381q0-1.2174 1.0637-1.2174 0.26216 0 0.61473 0.10546l-0.12958 0.40078q-0.28928-0.0934-0.49419-0.0934-0.28326 0-0.41886 0.18984-0.1356 0.18683-0.1356 0.60267v0.21395h0.84073z"/>
   <path d="m69.447 171.01q0 0.80759-0.4068 1.2626-0.4068 0.452-1.124 0.452-0.44297 0-0.78649-0.20792-0.34352-0.20792-0.53035-0.59665-0.18683-0.38872-0.18683-0.91004 0-0.80758 0.40379-1.2566 0.40379-0.452 1.121-0.452 0.69308 0 1.0999 0.46104 0.40982 0.46105 0.40982 1.2475zm-2.5162 0q0 0.63281 0.25312 0.96428t0.7443 0.33147 0.7443-0.32845q0.25614-0.33147 0.25614-0.9673 0-0.62979-0.25614-0.95523-0.25312-0.32846-0.75033-0.32846-0.49118 0-0.74129 0.32243-0.25011 0.32243-0.25011 0.96126z"/>
   <path d="m71.828 169.3q0.21998 0 0.39475 0.0362l-0.06931 0.46405q-0.20491-0.0452-0.3616-0.0452-0.40078 0-0.68705 0.32545-0.28326 0.32544-0.28326 0.81059v1.7719h-0.50022v-3.3026h0.41283l0.05725 0.61172h0.02411q0.18382-0.32243 0.44296-0.49721 0.25915-0.17477 0.56953-0.17477z"/>
   <path d="m77.05 172.67v-2.1485q0-0.39475-0.16875-0.59062-0.16875-0.19888-0.52433-0.19888-0.46707 0-0.69006 0.26819-0.22299 0.26819-0.22299 0.82566v1.8442h-0.50022v-2.1485q0-0.39475-0.16875-0.59062-0.16875-0.19888-0.52734-0.19888-0.47008 0-0.69006 0.28326-0.21696 0.28024-0.21696 0.92209v1.7327h-0.50022v-3.3026h0.4068l0.08136 0.45201h0.02411q0.14163-0.24107 0.39776-0.37667 0.25915-0.1356 0.57857-0.1356 0.77444 0 1.0125 0.56048h0.02411q0.14766-0.25915 0.4279-0.40982 0.28024-0.15066 0.63883-0.15066 0.56049 0 0.83772 0.28928 0.28024 0.28627 0.28024 0.91908v2.1546z"/>
  </g>
 </g>
</svg>
